HIERARCHY
ROOT root     
{
	OFFSET 0.0000 0.0000 0.0000
	CHANNELS 6 Xposition Yposition Zposition Zrotation Yrotation Xrotation
	JOINT pelvis   
	{
		OFFSET 0.0000 0.0000 0.0000
		CHANNELS 3 Zrotation Yrotation Xrotation
		JOINT thorax   
		{
			OFFSET 0.0000 23.0750 -5.0000
			CHANNELS 3 Zrotation Yrotation Xrotation
			JOINT rclavicle
			{
				OFFSET 0.0000 28.0009 0.0000
				CHANNELS 3 Zrotation Yrotation Xrotation
				JOINT rhumerus 
				{
					OFFSET -18.5725 5.5939 0.0000
					CHANNELS 3 Zrotation Yrotation Xrotation
					JOINT rradius  
					{
						OFFSET -24.8459 0.0000 0.0000
						CHANNELS 3 Zrotation Yrotation Xrotation
						JOINT rhand    
						{
							OFFSET -24.5477 0.0000 0.0000
							CHANNELS 3 Zrotation Yrotation Xrotation
							End Site
							{
								OFFSET -8.1826 0.0000 0.0000
							}
						}
					}
				}
			}
			JOINT lclavicle
			{
				OFFSET 0.0000 28.0009 0.0000
				CHANNELS 3 Zrotation Yrotation Xrotation
				JOINT lhumerus 
				{
					OFFSET 18.5725 5.5939 0.0000
					CHANNELS 3 Zrotation Yrotation Xrotation
					JOINT lradius  
					{
						OFFSET 24.8459 0.0000 0.0000
						CHANNELS 3 Zrotation Yrotation Xrotation
						JOINT lhand    
						{
							OFFSET 24.5477 0.0000 0.0000
							CHANNELS 3 Zrotation Yrotation Xrotation
							End Site
							{
								OFFSET 8.1826 0.0000 0.0000
							}
						}
					}
				}
			}
			JOINT head     
			{
				OFFSET 0.0000 35.2030 0.0000
				CHANNELS 3 Zrotation Yrotation Xrotation
				End Site
				{
					OFFSET 0.0000 11.7343 0.0000
				}
			}
		}
		JOINT rfemur   
		{
			OFFSET -8.2817 0.0000 0.0000
			CHANNELS 3 Zrotation Yrotation Xrotation
			JOINT rtibia   
			{
				OFFSET 0.0000 -43.3627 0.0000
				CHANNELS 3 Zrotation Yrotation Xrotation
				JOINT rfoot    
				{
					OFFSET 0.0000 -38.2947 0.0000
					CHANNELS 3 Zrotation Yrotation Xrotation
					JOINT rtoes    
					{
						OFFSET 0.0000 0.0000 16.6054
						CHANNELS 3 Zrotation Yrotation Xrotation
						End Site
						{
							OFFSET 0.0000 0.0000 5.5351
						}
					}
				}
			}
		}
		JOINT lfemur   
		{
			OFFSET 8.2817 0.0000 0.0000
			CHANNELS 3 Zrotation Yrotation Xrotation
			JOINT ltibia   
			{
				OFFSET 0.0000 -43.3627 0.0000
				CHANNELS 3 Zrotation Yrotation Xrotation
				JOINT lfoot    
				{
					OFFSET 0.0000 -38.2947 0.0000
					CHANNELS 3 Zrotation Yrotation Xrotation
					JOINT ltoes    
					{
						OFFSET 0.0000 0.0000 16.6054
						CHANNELS 3 Zrotation Yrotation Xrotation
						End Site
						{
							OFFSET 0.0000 0.0000 5.5351
						}
					}
				}
			}
		}
	}
}
MOTION
Frames: 17
Frame Time: .0333333
-29.774 79.56 0.4162 -144.669 86.023 -119.715 0 -0 0 1.73957 5.05146 20.1767 16.5168 -8.85537 5.85893e-06 47.67 11.0272 5.2854 -180 85.4878 -180 -10.9699 2.72703 -0.261906 -16.538 20.5631 0.000146638 -58.8192 30.2688 14.3704 -1.60765e-06 -78.0976 1.30415e-06 -0.958092 1.33842 -0.0112 3.44705 -4.40541 -13.3567 8.798 -18.7055 -35.3818 -0 -0 54.7094 -1.79305e-06 -7.54558 -9.45594 1.24671 -8.48264e-06 -54.4309 -17.0313 10.8137 -66.7031 -0 -0 50.536 -0.000103932 14.9402 -11.6281 -3.07838 1.73865e-05 -19.512 
-28.58 79.525 0.3684 -144.292 85.7137 -119.546 0 -0 0 1.55791 5.22936 20.1931 16.4121 -8.92348 3.59519e-05 47.3881 10.9227 5.28729 -180 84.82 -180 -10.8743 2.76296 -0.263001 -16.5476 20.7588 4.80749e-05 -59.0143 30.4842 14.3308 -1.6141e-06 -78.1515 1.31062e-06 -0.90291 1.19116 -0.00939987 3.2517 -4.33253 -13.1535 8.68374 -19.0868 -34.2346 -0 -0 54.5718 1.03815e-05 -7.27361 -8.84566 1.1244 7.24333e-07 -56.4899 -18.2986 11.2056 -66.7379 -0 -0 48.123 -6.10822e-05 14.5892 -11.3409 -2.92994 1.98991e-05 -21.1659 
-27.348 79.461 0.3232 -143.596 85.3831 -119.103 0 -0 0 1.40269 5.38873 20.2126 16.3301 -8.99449 -4.89494e-05 47.1399 10.791 5.32348 -180 84.2291 -180 -10.7537 2.79715 -0.263299 -16.5669 20.9382 0.000103115 -59.2116 30.6531 14.2644 9.28814e-07 -78.1751 -1.1434e-06 -0.812708 1.0621 -0.00750011 3.07972 -4.23981 -12.9553 8.57183 -19.4651 -33.0287 -0 -0 54.474 -5.36516e-06 -6.97183 -8.21111 1.0006 1.0205e-05 -58.6903 -19.4041 11.5871 -66.6208 -0 -0 45.8921 -4.02161e-05 14.2376 -11.0618 -2.78723 1.13239e-05 -22.6785 
-26.08 79.366 0.2827 -142.592 85.0085 -118.399 0 -0 0 1.27446 5.53132 20.2285 16.2685 -9.06912 5.81176e-05 46.9239 10.6389 5.40189 -180 83.7211 -180 -10.6033 2.83092 -0.262705 -16.5818 21.1154 0.000100235 -59.4193 30.7674 14.1828 0 -78.1635 0 -0.689201 0.943897 -0.00569997 2.93502 -4.12516 -12.7636 8.47091 -19.8405 -31.7782 -0 -0 54.4244 2.86084e-06 -6.633 -7.55869 0.876394 -2.12109e-07 -60.9874 -20.2906 11.9478 -66.3838 -0 -0 43.9249 3.07046e-05 13.9203 -10.8074 -2.66087 2.33194e-06 -23.7861 
-24.778 79.239 0.2501 -141.3 84.6092 -117.447 0 -0 0 1.17123 5.65582 20.2378 16.2285 -9.14838 5.24826e-05 46.7465 10.4735 5.52948 -180 83.3029 -180 -10.4176 2.87472 -0.262103 -16.6135 21.2693 3.29213e-05 -59.6221 30.8581 14.0611 0 -78.1431 0 -0.546307 0.843402 -0.00400009 2.82337 -3.98697 -12.5834 8.38757 -20.2104 -30.4918 -0 -0 54.4295 -1.20107e-06 -6.25689 -6.88469 0.752997 -3.96899e-06 -63.3352 -20.9117 12.2799 -66.0544 -0 -0 42.2971 -3.95012e-05 13.6659 -10.5619 -2.55186 8.93081e-06 -24.5602 
-23.448 79.078 0.2251 -139.781 84.1851 -116.288 0 -0 0 1.08089 5.76739 20.2175 16.2111 -9.2287 -4.1678e-06 46.6021 10.2922 5.7068 -180 82.9637 -180 -10.1979 2.92088 -0.2607 -16.6239 21.4286 3.00177e-05 -59.8378 30.8997 13.9279 -1.60632e-06 -78.0884 1.30283e-06 -0.3832 0.744099 -0.0025 2.74838 -3.82453 -12.4171 8.32391 -20.5743 -29.2067 -0 -0 54.5095 1.48609e-06 -5.84041 -6.19071 0.632008 1.01299e-07 -65.6661 -21.2325 12.5613 -65.68 -0 -0 41.0894 5.50806e-05 13.5118 -10.3516 -2.47258 -2.60691e-05 -24.7046 
-22.096 78.885 0.2095 -138.101 83.7426 -114.983 0 -0 0 0.996526 5.86115 20.1695 16.2154 -9.31088 1.53442e-05 46.4977 10.1076 5.93953 -180 82.7065 -180 -9.94546 2.97855 -0.259199 -16.6461 21.5661 -0.000164123 -60.0457 30.93 13.7477 1.83592e-06 -78.0498 -2.26515e-06 -0.213599 0.655098 -0.00119998 2.71328 -3.6361 -12.2756 8.28218 -20.9306 -27.9386 -0 -0 54.6765 4.34954e-06 -5.39265 -5.45911 0.514502 -1.82281e-06 -67.9383 -21.2369 12.7809 -65.2906 -0 -0 40.3513 -4.37611e-05 13.4738 -10.16 -2.42005 -9.40934e-06 -24.3536 
-20.727 78.659 0.2008 -136.322 83.2774 -113.584 0 -0 0 0.89791 5.94369 20.0806 16.2421 -9.38758 3.20684e-05 46.4312 9.90838 6.22121 -180 82.5283 -180 -9.66391 3.04076 -0.257101 -16.6525 21.6994 3.90471e-06 -60.2559 30.9242 13.5471 1.29225e-06 -77.9978 -1.59578e-06 -0.0375001 0.565501 -0.000199985 2.72093 -3.42154 -12.163 8.25112 -21.2784 -26.7218 -0 -0 54.9553 -7.20387e-06 -4.91701 -4.67792 0.401999 -5.15662e-07 -70.1172 -20.9413 12.9317 -64.9296 -0 -0 40.1289 3.4231e-06 13.5544 -10.0027 -2.39777 1.41589e-05 -23.4044 
-19.348 78.402 0.1963 -134.488 82.8095 -112.128 0 -0 0 0.767795 6.01845 19.9524 16.289 -9.45358 7.89221e-05 46.4022 9.69373 6.54742 -180 82.4163 -180 -9.35753 3.10619 -0.254305 -16.6479 21.8243 -2.97061e-05 -60.4606 30.8888 13.3188 -1.58991e-06 -77.9501 1.28637e-06 0.139496 0.476495 0.000599991 2.77182 -3.18187 -12.0898 8.21589 -21.6182 -25.5749 -0 -0 55.3693 2.09868e-06 -4.42221 -3.82449 0.2955 -2.86754e-06 -72.1897 -20.3828 13.0172 -64.6274 -0 -0 40.4371 1.78361e-06 13.7363 -9.87926 -2.40153 -6.52805e-06 -21.9339 
-17.961 78.115 0.1945 -132.645 82.3559 -110.662 0 -0 0 0.601404 6.08022 19.7955 16.3548 -9.50555 -4.7282e-05 46.4162 9.46655 6.9163 -180 82.3691 -180 -9.02931 3.17722 -0.250897 -16.6656 21.9181 2.14182e-05 -60.6372 30.8456 13.0444 -1.58883e-06 -77.9418 1.28529e-06 0.313506 0.393999 0.00110002 2.86174 -2.91623 -12.0667 8.16658 -21.9479 -24.5058 -0 -0 55.9305 3.30457e-07 -3.92216 -2.86415 0.196301 -5.63309e-06 -74.1624 -19.6031 13.046 -64.3953 -0 -0 41.2656 -9.55132e-06 13.9857 -9.8047 -2.42871 -4.0342e-06 -19.8811 
-16.569 77.8 0.1892 -130.802 81.9263 -109.195 0 -0 0 0.377713 6.14016 19.6176 16.4364 -9.53479 -1.70633e-05 46.4682 9.21306 7.31353 -180 82.3772 -180 -8.68243 3.24687 -0.246503 -16.689 21.9895 0.000126889 -60.7862 30.7664 12.7479 -1.58948e-06 -77.9485 1.28595e-06 0.487097 0.316099 0.00129998 2.98898 -2.6296 -12.0993 8.07396 -22.2653 -23.527 -0 -0 56.658 -1.31685e-07 -3.42284 -1.77339 0.1061 -2.01819e-07 -76.0373 -18.6835 13.0449 -64.2442 -0 -0 42.5779 -1.33973e-05 14.2589 -9.78326 -2.4727 -1.16448e-06 -17.391 
-15.174 77.459 0.1766 -128.997 81.5319 -107.774 0 -0 0 0.090823 6.1981 19.4347 16.5343 -9.53684 6.70352e-06 46.5591 8.93129 7.73063 -180 82.4203 -180 -8.31721 3.31464 -0.241104 -16.7335 22.0334 -0.000144651 -60.8919 30.6425 12.4384 1.82321e-06 -77.9735 -2.25248e-06 0.663507 0.248499 0.00140001 3.14664 -2.32531 -12.1897 7.91927 -22.568 -22.6361 -0 -0 57.5589 -7.18302e-07 -2.93538 -0.521097 0.0267005 -2.05245e-07 -77.8188 -17.6928 13.039 -64.1637 -0 -0 44.3052 -2.3943e-05 14.5156 -9.82657 -2.53004 -1.37659e-05 -14.5557 
-13.778 77.097 0.1521 -127.257 81.1917 -106.43 0 -0 0 -0.265963 6.25602 19.2597 16.6467 -9.50823 4.8574e-05 46.6838 8.61698 8.15619 -180 82.5077 -180 -7.93434 3.37924 -0.234405 -16.8161 22.031 -0.000173613 -60.9377 30.4705 12.1134 9.16562e-07 -78.0339 -1.13118e-06 0.843902 0.197504 0.00150004 3.32859 -2.00919 -12.341 7.68175 -22.8515 -21.8308 -0 -0 58.6301 -2.34336e-07 -2.4687 0.916887 -0.0394993 -3.13523e-08 -79.4843 -16.6978 13.0478 -64.1309 -0 -0 46.3557 -6.8809e-05 14.7257 -9.94825 -2.59971 9.43513e-06 -11.5229 
-12.385 76.719 0.1117 -125.625 80.9048 -105.207 0 -0 0 -0.694958 6.31339 19.1078 16.7783 -9.44745 3.84629e-05 46.8386 8.26844 8.57858 -180 82.632 -180 -7.53299 3.44044 -0.226606 -16.9388 21.9837 -1.53605e-05 -60.9068 30.2247 11.7991 4.60913e-07 -78.1052 -1.04722e-06 1.0356 0.1692 0.00149998 3.52714 -1.68727 -12.5504 7.34852 -23.1069 -21.1111 -0 -0 59.8637 -8.76871e-07 -2.03128 2.55466 -0.0906011 -8.02943e-08 -80.985 -15.7547 13.0827 -64.1195 -0 -0 48.6292 -4.37975e-05 14.8812 -10.1607 -2.68381 2.77965e-06 -8.51157 
-10.996 76.33 0.0522 -124.141 80.6769 -104.147 0 -0 0 -1.19425 6.36986 18.9841 16.9317 -9.35505 -5.17989e-05 47.0168 7.88574 8.98758 -180 82.794 -180 -7.11257 3.49904 -0.217496 -17.1152 21.8779 7.52267e-05 -60.7871 29.8934 11.4988 4.66512e-07 -78.1963 -1.05274e-06 1.24117 0.170697 0.00189992 3.73401 -1.36657 -12.811 6.91378 -23.3259 -20.4777 -0 -0 61.241 1.63568e-06 -1.63075 4.38997 -0.124899 4.37419e-07 -82.2337 -14.9029 13.145 -64.0955 -0 -0 51.0195 -1.41928e-05 14.993 -10.4809 -2.78914 -1.39389e-06 -5.70962 
-9.6177 75.936 -0.0274 -122.833 80.515 -103.273 0 -0 0 -1.75225 6.42612 18.891 17.1084 -9.23684 2.27067e-05 47.2152 7.47114 9.37406 -180 82.9837 -180 -6.67396 3.55618 -0.207395 -17.3373 21.7203 -5.055e-05 -60.5717 29.4397 11.2445 -1.15106e-06 -78.2665 9.36506e-07 1.46554 0.210099 0.00269985 3.93809 -1.0561 -13.1111 6.38672 -23.4944 -19.9351 -0 -0 62.7404 -6.10469e-07 -1.27742 6.39531 -0.1423 3.73408e-07 -83.0977 -14.1647 13.2299 -64.0335 -0 -0 53.4315 1.23023e-05 15.0844 -10.9241 -2.92405 1.95395e-06 -3.31572 
-8.2509 75.544 -0.1296 -121.781 80.4065 -102.663 0 -0 0 -2.36703 6.47027 18.8299 17.3133 -9.09242 -1.38562e-05 47.4329 7.03077 9.73711 -180 83.2347 -180 -6.21969 3.61498 -0.196503 -17.6403 21.4719 -0.000169613 -60.2395 28.9007 10.9977 -1.63929e-06 -78.3555 1.33588e-06 1.70885 0.287296 0.00429977 4.13247 -0.752821 -13.4396 5.76826 -23.6125 -19.4795 -0 -0 64.3298 -1.84256e-07 -0.967703 8.53523 -0.143598 -5.60376e-07 -83.5356 -13.5498 13.3178 -63.8999 -0 -0 55.7863 -9.07123e-05 15.1943 -11.5246 -3.10567 -7.52294e-08 -1.26673 
